<!DOCTYPE svg PUBLIC "-//W3C//DTD SVG 1.1//EN" "http://www.w3.org/Graphics/SVG/1.1/DTD/svg11.dtd">
<svg xmlns="http://www.w3.org/2000/svg" xmlns:xlink="http://www.w3.org/1999/xlink" version="1.1" id="Iceland" x="0px" y="0px" width="1186.034px" height="841.098px" viewBox="0 0 1186.034 841.098" enable-background="new 0 0 1186.034 841.098" xml:space="preserve">
    <defs>
        <g id="heart">
            <path d="M0 20 v-20 h20 a10,10 9 0,1 0,20 a10,10 9 0,1 -20,0 z" />
        </g>
    </defs>
    <style>
        .heart-outline {
            stroke: none;
            stroke-width: 0;
        }

        polygon {
          opacity: 0.1;
          animation: dash .2s linear forwards;
        }

        @keyframes dash {
          to {
            opacity: 1;
          }
        }
    </style>
    <polygon fill-rule="evenodd" clip-rule="evenodd" fill="none" stroke="#000000" stroke-width="1" stroke-linejoin="round" stroke-miterlimit="3.8637" points="  386.975,373.419 387.474,374.007 388.67,372.647 388.079,369.014 387.932,363.962 386.141,357.951 386.055,357.664 385.297,353.266   384.193,352.307 383.361,350.165 384.141,347.14 385.967,345.029 385.418,344.575 385.163,343.092 387.521,336.89 388.17,332.471   388.045,331.593 385.997,317.273 386.361,314.352 385.539,307.921 386.655,306.108 387.503,305.533 389.063,305.841   389.129,305.854 390.9,308.455 392.573,314.78 398.403,329.424 401.474,330.458 403.617,329.828 403.902,331.569 404.891,331.449   405.275,330.461 403.309,327.514 402.205,324.259 400.638,320.528 399.494,316.778 397.438,310.052 397.571,308.207   396.561,305.562 396.149,300.073 397.073,294.367 397.026,291.186 397.913,288.977 400.14,283.437 400.632,277.732 405.629,270.856   407.086,270.261 411.594,265.382 412.472,264.964 413.81,265.535 414.816,264.841 416.137,262.304 417.137,260.384 417.859,260.083   419.064,259.581 421.614,255.989 422.805,255.43 424.444,253.252 425.783,255.08 426.745,254.443 426.712,252.933 427.756,252.498   429.277,253.625 430.099,256.141 432.583,255.8 432.819,256.346 431.956,258.17 431.151,261.71 431.433,263.036 431.468,269.664   430.999,271.546 431.067,275.038 430.328,277.37 429.537,283.522 429.897,285.462 430.251,285.624 431.639,286.252 432.279,286.124   433.035,285.201 432.92,282.185 431.729,281.436 431.488,280.419 432.495,279.311 431.955,278.279 431.695,277.785 432.25,276.57   434.7,276.024 437.459,277.897 437.008,285.05 435.627,287.927 436.606,289.17 438.699,288.874 439.423,289.835 438.623,291.703   440.689,295.066 442,297.211 443.42,298.092 446.337,297.86 447.194,297.097 449.036,295.461 449.125,293.572 449.67,292.313   452.387,286.049 452.305,284.961 450.729,283.731 449.86,281.168 448.593,279.798 446.817,279.167 444.113,279.425 442.822,280.461   441.537,279.826 440.257,279.661 440.225,279.404 443.211,277.493 444.718,278.154 445.026,278.142 446.896,278.062   447.743,275.667 450.947,275.459 453.027,273.709 454.654,273.575 454.75,274.349 455.562,275.143 455.96,279.64 455.302,281.385   455.593,282.396 455.506,287.833 456.009,289.238 456.72,289.006 456.677,286.915 456.467,283.706 458.126,281.222 456.806,278.969   457.242,277.198 456.413,274.944 456.844,274.007 461.604,268.669 463.172,260.979 464.485,259.397 464.892,258.908   464.975,257.803 463.798,254.071 464.678,250.529 466.174,248.849 466.533,246.408 467.395,244.486 467.503,239.568   466.651,233.139 466.254,232.27 465.729,231.12 464.386,229.11 464.533,227.632 463.979,226.283 462.889,225.516 462.241,222.979   461.167,221.898 461.957,219.826 463.118,218.497 462.26,216.504 462.92,213.821 459.437,205.448 457.207,200.101 456.733,197.228   454.626,192.87 455.212,190.926 454.896,188.872 455.243,188.102 454.605,184.831 453.207,182.587 453.141,180.766 451.691,178.997   451.521,179.016 450.922,179.082 450.659,178.329 451.617,175.868 452.168,174.453 452.312,172.087 453.256,169.005   453.431,167.314 451.865,163.365 452.414,162.416 456.492,162.432 457.073,163.047 456.986,163.682 458.25,163.961 458.21,163.651   459.078,163.452 462.655,159.508 466.266,158.904 468.733,159.414 470.551,159.22 472.281,157.414 472.875,157.246 474.432,154.938   476.202,153.441 477.76,153.378 479.798,155.404 482.029,156.731 483.262,155.399 484.642,155.253 484.731,158.27 486.098,162.142   486.6,162.555 487.958,163.667 490.115,164.43 489.973,166.48 492.109,169.855 492.622,172.254 492.405,173.684 493.665,174.439   494.173,175.62 494.438,176.236 494.796,178.754 498.701,181.631 499.294,182.875 499.417,185.306 500.438,186.876 500.767,186.841   501.255,188.147 502.396,189.332 500.373,190.534 500.172,191.181 502.775,195.813 504.687,196.97 506.177,198.328 507.131,200.784   507.458,203.567 508.347,206.006 510.248,204.686 511.846,204.625 514.667,207.465 517.55,208.942 519.975,208.382 520.634,209.307   521.139,211.289 524.409,215.233 525.629,222.439 526.101,225.228 527.277,226.361 527.694,228.091 527.96,235.312 528.262,237.001   528.786,237.56 530.896,239.864 533.911,239.769 535.177,240.269 536.961,239.986 537.497,241.34 537.191,242.048 538.013,242.375   539.326,241.585 539.463,240.728 539.422,240.515 538.561,236.075 539.773,234.599 541.077,234.939 542.371,236.687   543.318,239.772 545.458,241.229 549.313,238.767 550.125,239.157 547.751,241.578 546.628,243.877 547.125,244.401   547.804,244.074 548.219,244.346 548.524,244.629 549.237,243.101 550.63,243.066 550.485,242.458 551.59,242.506 551.48,241.996   551.081,239.845 552.718,232.651 554.251,229.531 553.898,222.739 555.403,219.607 554.761,216.976 552.091,211.24 551.409,208.545   551.392,206.878 549.862,205.661 548.519,202.884 548.539,201.058 547.415,199.221 546.038,196.975 543.916,195.827   542.145,193.864 542.065,191.16 542.669,190.111 543.159,188.031 547.865,186.425 547.888,186.631 550.487,185.024 551.322,183.536   551.093,180.953 549.749,178.319 548.537,176.926 547.613,174.617 547.51,172.177 549.653,169.416 553.854,166.615 554.901,164.482   555.756,164.14 557.931,165.183 558.917,164.517 560.108,164.716 562.783,164.203 563.77,164.057 564.885,164.577 566.644,164.36   569.842,162.498 571.04,163.793 572.7,163.691 575.164,166.431 576.531,166.202 577.619,165.424 577.94,163.728 577.043,161.57   581.426,160.855 581.143,161.87 579.464,162.858 581.906,163.832 583.834,167.356 588.123,169.518 585.564,165.791 584.29,161.062   582.332,160.46 583.027,155.396 583.673,153.009 584.877,148.559 588.129,144.93 588.502,144.734 590.99,143.423 593.559,140.693   595.774,139.401 598.39,139.273 600.501,140.234 601.564,141.337 601.695,143.721 601.257,144.906 601.807,147.565 600.365,150.4   601.572,150.191 605.098,145.87 605.118,144.41 604.641,143.567 606.8,141.711 607.117,139.861 606.085,137.4 606.275,137.07   610.473,137.643 612.723,138.333 615.375,140.813 615.377,142.53 612.459,150.229 612.417,151.481 612.918,152.201 614.068,152.381   615.244,149.051 616.916,146.772 619.668,145.808 623.162,145.563 625.222,146.639 631.386,154.97 630.771,157.751 626.515,161.627   625.767,164.241 626.18,164.608 633.313,161.107 635.041,161.119 636.53,162.14 638.21,165.177 639.08,169.061 639.372,172.732   640.444,174.673 640.425,178.579 640.327,179.059 638.572,187.736 639.385,188.709 640.756,189.106 642.171,189.467   645.532,189.868 647.328,191.907 650.735,194.023 653.65,193.215 656.377,193.983 658.168,194.204 660.118,196.181 662.403,201.878   664.331,203.651 665.702,211.554 667.172,212.583 668.592,212.418 671.563,214.213 671.794,215.276 672.307,217.64 672.152,222.127   672.89,226.126 675.292,229.684 676.585,233.796 675.693,235.53 675.764,238.853 675.222,241.444 675.425,243.146 677.879,245.503   678.943,247.657 681.592,250.417 683.226,252.215 682.768,254.539 683.136,256.278 683.042,260.29 684.262,261.755 684.907,263.651   686.101,260.887 687.004,259.935 687.073,256.237 686.709,255.108 684.17,247.253 682.288,244.486 681.616,241.781 682.362,238.343   681.92,233.851 682.802,231.34 684.526,228.188 684.861,226.501 684.506,224.292 685.078,223.259 686.432,223.001 685.021,221.964   684.756,220.164 685.579,217.553 683.665,214.525 683.27,211.228 681.708,208.486 682.513,205.668 681.333,206.07 680.273,205.944   680.024,205.179 679.067,202.239 677.38,201.276 678.214,200.067 677.927,199.31 677.121,199.58 676.27,200.583 676.506,202.645   675.604,203.079 673.735,202.548 673.196,201.445 670.377,198.336 670.652,198.314 669.965,196.807 671.755,194.535   671.488,193.475 671.242,192.494 666.738,186.083 663.164,179.03 663.32,175.844 662.335,172.332 660.881,169.168 660.848,167.422   660.794,164.544 659.305,157.378 659.688,155.474 658.962,150.588 659.235,148.692 661.591,144.552 663.067,142.979   664.994,143.297 665.958,142.97 667.812,142.348 670.705,143.475 673.449,142.951 675.449,144.098 677.469,147.331 678.042,146.916   677.97,145.466 678.511,144.644 680.008,144.53 682.767,146.089 683.278,146.831 682.27,148.052 683.278,149.381 687.062,148.002   688.413,146.861 692.492,146.297 693.857,147.912 695.91,148.437 698.228,150.139 700.958,151.448 701.035,154.355 703.275,157.156   703.91,157.421 704.783,157.879 708.268,157.627 709.476,158.823 709.541,158.887 709.958,160.574 710.822,161.604 716.441,165.052   718.147,167.583 719.344,168.643 719.915,170.214 720.885,171.239 721.658,173.263 723.319,174.604 724.472,180.71 725.364,181.479   726.797,182.783 727.952,184.782 729.556,186.082 729.775,185.88 730.761,185.648 730.197,185.156 730.384,184.719 732.919,185.273   736.516,185.235 738.489,185.6 741.316,185.015 744.633,184.949 748.14,183.73 748.488,186.149 749.805,187.466 750.318,189.875   750.061,191.607 750.551,192.041 751.202,190.596 751.082,188.994 750.962,187.389 751.237,187.372 751.021,187.119   749.355,185.157 750.869,182.458 752.991,179.722 752.193,178.681 752.492,176.739 755.572,173.421 756.047,172.351   754.271,169.347 755.143,166.9 754.404,165.181 756.017,164.452 756.659,163.372 755.26,161.747 755.641,160.892 760.476,160.113   761.656,158.011 764.664,155.014 764.242,153.658 763.792,152.211 764.698,150.126 764.714,149.854 764.773,148.874   763.407,147.714 763.237,145.386 764.628,143.062 766.459,142.169 766.872,140.948 768.733,138.908 770.785,137.949   773.452,139.342 774.34,139.289 775.789,138.472 776.652,137.276 775.875,135.764 776.269,135.013 778.806,136.158 779.767,135.75   780.812,135.308 782.224,135.535 783.806,135.802 787.22,135.131 788.29,135.886 791.502,138.151 793.526,141.668 793.315,145.941   793.972,148.24 796.043,150.042 795.947,153.58 797.721,154.308 795.525,154.747 796.443,155.992 796.098,159.13 797.701,158.984   799.289,159.463 800.348,158.675 798.223,157.655 798.085,156.415 798.912,156.316 799.035,154.918 799.57,154.511 802.685,154.488   810.076,152.742 813.317,152.017 817.576,149.859 818.33,150.338 817.329,151.224 812.36,153.576 814.576,155.167 814.716,156.096   815.157,159.031 815.597,158.955 816.221,156.53 816.394,153.144 818.347,151.479 821.306,151.628 822.938,150.139 822.5,149.382   823.246,147.939 824.026,147.067 822.162,147.532 819.958,148.794 819.792,147.92 827.532,144.334 831.101,143.468 834.693,140.216   840.629,137.525 840.773,137.46 840.875,138.234 834.46,141.89 833.816,143.222 827.23,145.752 827.096,146.278 828.817,146.186   830.811,145.093 831.989,145.905 833.682,144.682 835.956,144.512 836.11,144.296 835.248,142.939 839.59,140.065 840.909,140.672   842.691,136.893 843.544,132.436 843.859,132.11 845.394,130.681 846.932,127.384 847.06,123.846 848.16,121.61 848.071,120.108   846.652,117.843 846.34,116.797 845.675,114.568 843.973,113.254 844.036,112.42 842.339,110.272 842.599,105.222 841.748,104.123   839.974,103.538 839.205,101.968 840.023,98.758 838.513,96.082 839.341,93.962 838.825,91.805 838.212,89.243 839.76,87.865   837.301,81.656 836.107,79.64 836.187,76.312 833.79,74.929 832.926,73.728 833.86,71.497 835.418,69.288 836.387,66.839   836.592,66.318 837.825,66.152 838.701,66.625 839.071,69.931 838.305,71.268 839.674,72.612 840.228,70.393 839.993,69.314   841.156,66.138 845.539,63.84 846.953,63.873 847.744,66.742 847.082,68.904 847.312,69.661 847.382,71.123 847.678,72.302   849.189,73.058 848.95,71.875 847.901,70.063 848.205,68.797 850.802,67.838 851.887,66.123 852.834,67.841 853.863,68.051   853.565,65.833 854.594,66.041 855.74,68.193 856.05,68.774 856.445,70.729 858.521,71.511 861.048,71.287 860.248,72.104   857.562,72.493 857.775,73.261 859.913,73.159 861.342,73.506 862.53,72.566 864.666,72.413 864.746,71.839 863.384,71.695   863.05,70.776 864.055,70.573 864.852,67.68 864.509,66.605 865.281,65.271 866.337,65.479 866.767,65.564 865.971,66.485   866.672,68.944 868.141,67.94 869.952,61.885 870.946,60.437 871.507,60.359 871.849,61.434 872.87,61.492 874.234,60.598   874.245,60.805 877.93,61.001 879.073,62.3 881.367,62.924 882.069,64.45 883.694,64.565 884.79,64.641 883.179,62.999   883.543,62.413 885.804,62.416 887.115,60.489 887.798,60.564 888.947,63.11 891.684,64.704 892.021,66.87 892.538,67.055   892.59,65.859 893.647,65.555 894.271,66.723 893.507,68.384 894.348,68.225 895.784,68.734 896.577,69.895 898.102,69.933   897.383,70.578 897.13,70.805 898.727,71.154 900.081,72.29 897.618,72.654 897.545,74.577 896.387,75.093 895.489,77.415   896.912,78.809 895.423,79.442 895.726,80.988 894.423,83.067 896.522,83.393 897.34,83.981 895.917,85.91 896.412,87.915   897.228,87.36 898.593,88.182 899.692,86.01 900.463,85.667 901.44,86.094 901.218,88.438 902.124,88.556 904.221,87.158   906.475,86.664 906.517,87.543 905.703,88.149 905.121,90.175 906.486,91.542 907.872,89.98 915.366,91.907 918.368,92.051   918.522,92.979 920.152,95.184 920.717,96.734 919.973,97.646 919.729,100.872 921.035,106.115 918.215,113.025 913.438,117.418   910.857,117.264 910.021,118.051 912.732,120.25 912.885,118.738 913.783,118.806 916.197,123.079 917.101,122.826 918.833,121.615   920.374,122.281 920.675,123.983 920.396,123.993 919.594,125.996 919.137,129.441 920.311,131.326 920.462,131.569   924.389,130.792 925.661,131.782 926.844,132.047 928.275,130.332 929.331,130.24 929.859,129.546 930.702,129.67 931.417,130.733   931.487,133.594 932.586,133.232 934.854,134.082 934.738,132.684 935.527,132.863 937.89,137.479 938.446,138.567 940.043,139.445   942.11,139.576 942.102,139.37 942.846,139.861 944.286,141.004 947.067,146.184 950.063,147.546 949.968,149.313 950.676,150.425   952.015,149.034 952.164,145.813 950.382,145.77 954.184,143.409 955.842,138.837 954.122,134.798 954.023,130.91 953.132,128.138   953.695,126.674 954.752,123.932 956.995,122.715 958.001,122.734 960.739,124.351 964.027,123.988 968.836,122.64 973.276,121.825   974.905,121.273 976.644,120.684 978.609,117.772 977.437,116.251 977.807,115.668 979.385,115.984 981.454,114.366   983.176,112.396 983.714,110.149 986.017,108.732 986.973,105.54 988.361,102.683 989.487,101.993 990.447,100.511 992.021,98.911   994.823,97.121 1001.199,94.665 1002.936,94.568 1004.977,95.189 1006.813,96.434 1011.45,99.587 1014.117,100.661 1019.534,99.854   1024.233,97.41 1028.782,97.565 1030.021,97.112 1033.173,95.964 1033.631,96.316 1031.239,99.273 1028.632,100.369   1026.396,100.628 1025.028,101.852 1019.928,103.892 1017.752,104.254 1015.161,105.718 1012.109,106.729 1011.352,107.629   1010.798,107.803 1008.467,108.533 1006.329,110.04 1004.015,113.058 1002.454,113.254 1001.03,114.227 1000.239,113.988   998.768,115.221 994.324,116.329 990.65,118.351 989.323,120.465 988.361,120.974 986.523,121.947 986.298,123.561 988.361,124.251   989.01,124.468 991.88,126.825 993.292,130.112 994.438,131.682 995.41,135.856 994.78,138.779 993.129,141.106 992.602,141.529   988.361,144.928 987.491,145.626 986.164,147.532 984.289,148.002 982.443,149.655 981.483,150.472 978.028,151.821 974.27,152.404   970.721,155.68 970.529,158.02 971,158.292 972.911,159.397 973.972,161.127 974.529,161.154 976.64,161.252 979.554,160.489   982.716,160.446 982.804,161.377 982.233,162.536 982.505,165.432 982.671,167.191 980.184,170.585 979.73,171.896 980.746,172.436   984.305,171.241 985.914,171.296 986.679,171.69 988.361,172.553 990.309,173.554 992.637,173.645 996.331,173.176 997.915,174.222   999.463,177.707 1000.34,178.53 1003.778,177.694 1005.667,176.14 1005.798,175.459 1006.097,173.898 1007.092,172.005   1012.472,168.495 1014.184,168.296 1017.901,170.434 1019.58,171.015 1020.966,173.109 1021.432,173.927 1022.848,181.206   1026.518,184.075 1026.671,188.739 1026.807,192.885 1025.416,199.648 1024.953,201.901 1021.917,207.728 1015.578,213.174   1014.843,214.385 1014.574,216.518 1013.886,217.418 1010.029,218.917 1009.125,219.926 1008.451,221.534 1006.972,225.065   1006.98,227.189 1007.857,229.035 1007.708,229.557 1006.182,227.989 1005.698,228.313 1005.594,230.339 1004.727,230.674   1004.891,232.485 1003.125,233.879 1001.59,235.632 999.458,235.744 998.02,237.029 998.935,238.298 1000.154,238.784   1001.605,237.915 1010.058,229.288 1011.251,228.842 1011.493,229.614 1009.407,233.246 1005.06,238.08 1005.028,238.858   1004.723,239.387 1002.896,242.547 1004.717,244.884 1005.726,245.685 1006.78,245.428 1009.206,243.208 1012.736,242.339   1012.744,242.598 1019.854,238.583 1022.042,238.529 1022.05,238.839 1023.227,237.827 1025.335,236.843 1030.86,236.663   1033.307,235.986 1038.944,233.744 1039.382,233.57 1042.237,231.54 1045.023,231.17 1046.48,230.208 1048.794,230.731   1052.335,229.781 1054.369,230.001 1054.927,230.507 1055.199,232.939 1053.76,234.783 1053.846,236.232 1052.025,240.622   1051.356,241.46 1049.205,244.152 1048.385,246.554 1048.643,248.311 1049.908,248.701 1049.148,246.486 1049.519,245.96   1050.291,246.257 1051.617,249.393 1056.087,254.129 1061.272,256.833 1061.336,257.298 1061.402,257.867 1062.721,258.804   1075.981,267.989 1081.63,270.441 1085.126,271.27 1088.313,272.918 1089.4,273.18 1091.33,271.288 1094.675,269.326   1099.469,269.576 1101.562,271.52 1101.783,271.727 1102.299,273.742 1101.682,276.392 1098.87,277.464 1099.158,278.704   1099.816,279.162 1101.655,278.466 1102.698,279.283 1103.564,279.066 1105.42,279.667 1106.471,281.21 1106.072,288.42   1106.628,289.502 1108.598,290.879 1110.108,290.19 1111.004,287.952 1111.915,287.009 1114.154,283.409 1115.084,284.023   1117.686,283.583 1118.665,283.78 1119.986,285.532 1119.428,289.372 1119.753,289.369 1120.665,288.272 1121.371,288.37   1124.864,292.414 1125.593,293.258 1125.729,302.328 1125.249,303.058 1122.391,304.118 1121.48,305.059 1121.544,306.042   1122.635,307.019 1122.866,308.519 1122.282,309.666 1123.32,310.9 1123.242,314.01 1120.702,316.319 1119.442,317.465   1121.675,319.519 1119.721,323.683 1120.057,324.975 1118.244,326.909 1115.873,326.931 1113.947,328.195 1112.321,327.382   1111.407,327.599 1104.717,326.947 1103.753,327.426 1103.535,328.08 1103.338,328.674 1103.838,329.861 1107.565,330.698   1109.794,332.488 1113.297,332.71 1114.547,333.787 1115.155,335.284 1113.346,337.116 1112.981,338.26 1110.527,339.944   1109.857,340.035 1109.292,340.113 1107.297,339.668 1100.894,339.431 1099.875,339.651 1097.01,342.435 1093.279,344.608   1089.841,344.707 1088.459,345.711 1087.413,347.539 1087.129,349.979 1087.887,350.894 1090.789,346.974 1092.774,346.843   1094.319,345.942 1098.227,344.958 1100.252,343.751 1101.426,343.052 1106.153,342.842 1111.121,344.861 1112.94,344.169   1115.409,343.885 1117.699,341.842 1119.477,342.239 1123.747,344.792 1126.822,346.166 1127.046,346.337 1129.633,348.321   1130.34,349.456 1128.264,351.493 1127.531,353.623 1125.567,355.919 1124.2,358.938 1122.554,360.557 1118.93,362.457   1115.873,362.123 1113.305,362.46 1112.475,362.85 1110.374,363.837 1107.263,363.405 1101.961,363.466 1097.08,362.958   1095.066,364.485 1092.713,364.725 1091.437,365.313 1087.595,366.196 1088.202,367.378 1090.216,366.659 1090.917,366.407   1093.218,366.324 1096.257,365.403 1100.804,365.087 1103.811,365.724 1107.791,367.234 1111.862,367.501 1115.273,366.171   1117.472,366.563 1118.813,366.511 1119.185,366.496 1120.565,365.394 1122.814,365.375 1124.107,366.244 1124.559,368.728   1123.824,370.289 1123.106,373.612 1122.266,375.227 1120.247,376.487 1114.958,376.642 1113.96,378.206 1111.837,379.524   1112.883,380.688 1113.904,380.19 1116.319,379.013 1118.88,378.728 1121.831,380.05 1122.105,380.773 1117.873,384.646   1118.041,385.421 1118.734,385.416 1122.087,384.452 1122.782,384.601 1123.435,385.943 1123.519,389.207 1125.003,388.262   1125.099,387.017 1125.445,386.576 1126.945,384.67 1128.041,381.758 1128.862,377.814 1131.308,376.293 1133.415,372.287   1134.375,372.021 1134.968,372.587 1133.843,379.28 1134.312,382.358 1134.348,382.592 1133.364,386.59 1133.603,389.957   1134.778,390.156 1136.759,391.386 1137.031,392.213 1136.803,392.846 1136.3,394.239 1134.714,395.907 1133.716,397.832   1130.332,400.706 1126.565,402.083 1125.353,403.185 1127.19,406.638 1127.261,408.658 1126.93,409.222 1126.527,409.909   1122.827,412.012 1119.172,413.031 1117.525,412.994 1116.777,412.586 1110.247,412.86 1108.166,412.106 1106.77,410.878   1106.664,410.422 1106.385,409.222 1105.929,407.26 1102.15,402.85 1097.852,399.742 1095.333,398.582 1091.435,397.806   1090.199,397.045 1088.567,394.84 1087.121,394.343 1085.82,392.91 1085.636,392.86 1084.375,392.516 1083.96,393.248   1084.936,394.979 1085.988,396.847 1088.111,399.822 1087.277,400.973 1081.997,400.326 1080.355,400.869 1077.203,403.252   1075.285,403.127 1075.282,402.919 1071.295,403.141 1066.598,402.342 1064.789,402.375 1064.865,404.105 1064.882,404.498   1070.34,406.216 1073.101,405.961 1075.713,406.333 1076.214,406.292 1081.236,405.883 1081.233,405.675 1086.365,407.361   1088.6,407.484 1090.366,408.289 1094.129,407.512 1094.984,407.81 1095.933,409.222 1096.124,409.506 1098.433,411.237   1098.88,412.89 1099.845,413.552 1099.544,414.904 1099.812,415.055 1105.376,418.459 1106.706,420.233 1108.341,422.415   1111.163,423.369 1113.705,423.135 1117.322,424.188 1117.896,423.25 1118.538,423.865 1118.604,425.211 1118.211,428.272   1117.536,429.522 1111.931,430.357 1109.802,429.499 1108.927,430.184 1108.595,430.443 1106.686,430.258 1106.147,429.54   1105.086,429.396 1102.209,428.031 1101.669,427.261 1100.442,426.654 1099.816,427.388 1094.629,427.816 1089.854,427.363   1084.661,424.02 1083.599,423.881 1083.083,424.769 1083.702,427.039 1085.965,429.441 1089.735,430.06 1092.242,431.269   1097.114,431.307 1102.161,432.591 1105.163,435.562 1106.221,435.6 1107.823,436.826 1110.264,437.473 1110.12,438.718   1111.446,439.117 1111.987,440.149 1111.255,440.881 1110.7,443.219 1109.447,444.581 1106.72,446.216 1104.853,449.036   1103.693,449.154 1101.682,448.28 1100.561,447.792 1098.956,446.31 1097.37,446.174 1094.717,445.328 1092.832,445.41   1092.199,446.554 1092.417,447.069 1095.603,448.271 1095.606,448.529 1097.68,449.539 1098.381,450.669 1099.543,450.758   1100.652,451.738 1100.932,451.984 1103.147,451.906 1103.951,452.931 1104.079,454.692 1102.829,455.951 1101.404,455.916   1099.325,454.232 1097.236,455.762 1091.711,456.613 1089.796,455.448 1089.124,456.39 1087.481,455.843 1086.501,457.257   1084.298,457.963 1082.93,461.402 1083.886,461.907 1085.282,463.648 1085.63,465.664 1089.005,469.552 1085.271,473.026   1083.748,473.204 1081.921,474.009 1081.257,475.211 1079.998,475.386 1079.118,476.229 1078.002,475.521 1076.071,476.33   1073.293,476.739 1071.207,477.655 1069.919,479.077 1069.202,479.25 1068.769,479.356 1067.177,478.503 1064.84,479.996   1063.456,478.985 1062.566,479.208 1060.322,477.282 1058.631,476.796 1056.339,475.235 1054.928,475.625 1054.77,475.242   1052.546,469.869 1050.633,468.976 1049.879,465.728 1048.005,464.753 1047.112,462.002 1043.935,458.96 1043.519,456.898   1042.765,456.188 1041.502,456.318 1040.218,455.519 1038.898,455.497 1038.483,456.161 1038.609,456.643 1041.072,458.246   1041.257,459.434 1042.346,460.965 1040.693,462.399 1040.979,463.377 1040.99,463.896 1043.52,466.275 1044.834,466.196   1045.964,467.261 1046.215,469.12 1047.792,469.035 1048.33,469.542 1047.729,473.336 1050.769,477.833 1052.892,478.827   1053.628,481.403 1057.558,483.553 1058.641,485.189 1059.855,485.581 1060.675,484.53 1061.201,484.624 1061.346,486.641   1061.882,487.252 1060.757,488.723 1059.558,489.11 1059.563,489.369 1060.943,490.224 1060.938,489.912 1062.137,489.579   1062.203,490.251 1060.171,490.962 1057.177,490.657 1054.472,489.157 1054.132,487.972 1053.021,487.528 1049.659,487.338   1047.424,485.882 1044.222,485.846 1042.713,486.45 1039.615,486.363 1038.987,488.599 1039.596,490.042 1041.467,491.606   1043.339,490.943 1044.358,491.958 1044.555,493.715 1046.705,493.772 1046.51,499.216 1045.439,500.535 1045.049,501.839   1043.227,502.241 1041.696,501.704 1040.337,501.787 1039.209,502.796 1038.001,502.616 1038.125,501.409 1038.172,500.954   1036.905,500.517 1035.397,500.966 1033.454,502.876 1032.439,502.019 1031.237,502.907 1029.542,503.382 1028.775,504.126   1029.121,505.413 1029.651,505.711 1030.025,508.138 1031.043,509.151 1032.118,508.192 1033.646,508.674 1033.767,509.345   1033.07,510.812 1033.407,511.789 1034.733,512.639 1036.386,513.999 1037.841,513.707 1038.946,514.043 1040.111,512.463   1040.543,513.076 1038.43,516.543 1038.564,517.835 1040.368,514.531 1042.599,511.529 1044.392,509.935 1046.23,506.052   1048.427,503.113 1050.029,502.2 1052.697,499.606 1053.22,499.596 1053.818,500.671 1052.848,501.832 1050.301,502.661   1047.45,505.207 1045.812,507.935 1045.389,510.121 1042.423,513.034 1040.7,515.351 1039.296,520.15 1040.535,521.831   1040.463,523.284 1037.597,530.263 1036.664,532.539 1036.622,535.182 1037.688,536.245 1037.759,537.072 1034.956,539.573   1034.518,543.002 1033.476,545.099 1030.25,544.967 1022.129,546.835 1019.143,547.525 1014.258,549.414 1011.615,551.506   1012.5,549.669 1016.543,547.437 1020.571,546.504 1025.555,544.254 1026.202,544.208 1032.249,543.781 1030.716,542.73   1028.464,542.111 1027.654,540.886 1026.659,540.6 1024.755,539.353 1023.455,539.384 1021.547,540.056 1019.622,540   1018.091,539.159 1016.675,540.699 1016.628,542.823 1015.741,544.66 1015.949,544.655 1015.885,546.159 1014.946,546.029   1013.429,547.572 1012.45,547.856 1011.345,549.234 1010.63,549.523 1009.521,550.89 1009.896,551.041 1010.729,551.375   1011.116,552.245 1007.229,554.099 1004.318,555.956 1001.029,558.645 998.413,561.534 996.733,564.311 996.502,567.011   995.969,568.218 995.513,566.834 996.01,564.383 997.142,562.455 997.911,561.158 998.173,559.519 998.788,556.687 998.263,556.494   996.211,562.462 994.32,563.346 993.487,565.083 992.48,565.627 992.034,567.686 991.534,568.218 991.379,568.823 992.465,568.791   993.274,569.854 994.208,569.93 995.074,569.438 995.708,569.885 997.375,568.489 997.82,569.51 997.436,570.506 998.736,572.488   996.785,573.012 995.02,574.516 994.534,577.277 993.18,576.954 991.46,579.908 992.548,581.687 992.216,582.041 991.748,582.541   990.963,582.585 988.361,582.735 987.777,582.768 986.261,582.194 984.091,582.209 982.474,581.743 976.267,581.531   974.107,581.862 971.658,582.773 969.024,582.811 969.015,582.553 970.891,581.503 974.527,580.673 978.072,579.866   984.366,580.054 985.708,581.07 986.789,580.933 988.361,581.571 989.04,581.847 989.324,581.009 990.629,581.436 990.979,581.063   990.526,579.781 991.797,577.41 990.251,577.561 989.216,579.2 988.361,579.729 987.542,580.236 985.431,580.133 984.62,579.344   984.763,578.977 986.008,579.092 986.905,578.028 983.488,573.059 980.003,570.891 976.475,570.645 976.086,572.987   974.834,574.221 974.253,573.877 972.932,574.595 972.577,573.26 971.418,572.677 970.768,573.322 970.166,572.627 969.852,572.265   968.554,573.655 970.526,575.35 970.567,576.542 969.778,577.657 968.99,577.32 968.161,578.748 968.232,579.314 967.516,579.547   966.82,578.845 966.425,576.423 967.393,575.976 967.642,572.703 968.381,571.642 967.187,571.527 967.176,571.217 968.863,570.589   969.054,570.115 967.905,569.845 968.065,568.492 967.256,569.037 967.021,569.68 966.641,570.717 966.068,570.632 964.527,572.448   965.109,569.838 963.273,569.175 962.747,568.152 961.938,566.581 961.404,562.66 960.783,563.252 960.287,560.991 959.801,560.438   959.246,560.987 959.539,562.554 959.262,563.634 959.381,563.952 959.676,564.737 958.794,564.153 959.112,565.8 960.722,567.349   961.677,569.439 960.243,571.304 955.767,569.238 955.974,567.832 955.431,567.125 954.041,567.382 956.604,565.217   957.089,562.868 956.865,561.01 955.628,559.777 955.545,557.535 954.18,555.667 953.991,554.812 953.282,554.043 953.11,555.921   949.961,552.028 948.414,550.077 948.17,551.848 949.086,555.113 951.521,558.148 951.589,559.619 951.799,564.202 950.441,563.941   948.963,560.473 948.704,560.481 948.391,561.789 948.924,562.183 949.572,565.63 949.99,565.719 950.58,564.867 951.696,565.604   951.696,569.802 951.182,571.271 948.557,571.68 948.632,572.299 949.684,572.726 950.913,573.768 950.349,575.292 949.658,574.8   948.769,575.922 947.756,575.129 946.988,575.367 946.678,576.725 943.528,578.192 942.439,578.132 941.935,577.115 939,574.845   938.334,576.323 938.957,577.697 940.356,579.092 945.017,579.276 945.758,579.713 945.261,580.251 943.609,580.315 942.563,581.34   940.804,579.957 940.442,580.262 941.898,581.521 941.665,583.111 940.136,581.382 938.971,581.998 939.775,582.744   939.488,583.325 936.591,583.231 935.631,582.492 934.763,582.735 934.209,584.414 931.889,584.507 930.688,585.489   929.034,585.501 927.38,586.377 925.952,587.135 922.474,588.109 920.98,588.016 920.786,587.091 921.505,585.765 921.176,585.201   920.953,585.149 920.054,585.671 920.013,587.123 919.359,588.758 917.55,589.924 916.541,591.677 914.87,592.423 914.16,593.904   912.427,595.586 909.364,596.291 908.78,597.094 908.819,597.973 913.195,596.651 915.843,595.854 917.552,593.603 918.362,594.449   917.403,596.148 916.5,596.757 913.936,597.076 908.746,598.651 906.142,600.373 905.27,600.463 901.868,601.603 900.589,601.575   900.42,601.584 892.271,606.947 891.926,608.057 891.396,609.085 884.025,615.294 882.522,617.181 880.349,618.999 876.433,624.013   873.694,626.793 872.893,626.16 872.209,626.972 871.913,628.126 867.136,632.104 863.131,634.02 862.881,634.655 861.967,636.549   857.845,638.443 857.153,638.01 858.965,636.549 854.847,636.549 853.708,636.549 854.483,639.239 854.342,639.492 855.007,639.42   853.79,640.836 853.141,642.275 853.221,642.844 856.4,639.453 856.783,639.902 856.095,641.603 854.596,643.553 852.424,645.435   851.654,645.475 851.234,646.33 851.548,647.458 849.582,649.278 847.364,652.207 846.373,652.934 843.282,657.501 841.405,660.278   839.686,660.787 834.028,667.446 831.142,672.029 829.922,673.191 828.843,673.146 828.446,672.44 829.352,670.202 830.514,669.878   831.249,669.212 831.738,668.497 832.582,667.265 837.82,661.46 840.292,659.609 844.633,655.108 845.506,653.084 844.419,652.933   842.089,654.619 841.838,655.726 840.651,657.803 840.519,658.035 838.246,659.771 837.628,660.742 835.964,662.29 833.771,663.555   830.124,666.411 827.374,667.761 825.279,668.227 824.742,668.429 823.327,667.884 820.792,667.507 820.769,668.029   822.448,668.714 823.579,668.755 823.102,669.407 819.24,669.157 817.224,670.731 816.658,670.711 816.406,671.715 815.242,671.99   814.515,677.344 813.991,678.989 813.356,679.546 812.872,678.22 812.941,673.946 811.939,672.546 811.063,675.203 811.349,678.466   811.196,680.297 810.281,683.163 809.182,679.114 809.204,675.53 808.366,676.666 807.716,676.752 806.885,675.655 805.943,673.523   805.684,671.665 804.647,670.58 803.579,665.382 801.819,663.353 801.057,664.388 801.023,666.473 800.347,667.19 800.885,670.909   801.376,677.024 800.949,679.394 801.177,681.568 800.258,683.394 798.764,684.995 796.76,685.481 794.479,685.255 791.852,685.883   788.857,686.082 786.588,686.001 784.823,686.209 778.384,685.789 772.931,686.19 772.507,686.135 768.079,685.566 766.94,685.6   763.684,685.698 760.797,686.202 759.667,686.955 759.696,685.611 759.886,683.97 759.652,683.635 759.659,683.984 759.033,684.235   757.411,686.896 756.319,687.438 752.132,688.397 751.555,688.175 749.557,688.938 748.381,688.966 744.774,690.15 744.493,690.686   742.197,691.424 741.714,690.311 741.171,690.609 741.508,691.836 736.379,693.185 732.345,695.554 731.287,695.785   731.099,695.278 732.113,692.13 731.062,693.136 729.881,694.135 729.83,694.979 729.718,696.784 727.62,697.507 723.09,700.022   717.6,704.051 717.042,703.436 715.438,704.596 715.717,705.67 715.435,706.733 714.409,708.842 712.566,709.501 712.725,709.969   712.253,710.32 709.616,714.673 708.037,718.285 703.768,722.727 702.321,723.149 700.127,723.107 697.127,722.502 694.795,721.273   694.841,721.896 697.051,723.552 701.917,725.318 704.837,723.427 707.301,720.113 707.849,720.646 705.551,723.427   703.939,726.521 702.891,729.492 700.559,736.113 697.09,740.864 694.025,744.125 691.49,746.253 686.388,750.044 685.334,750.576   678.321,754.128 676.32,755.853 675.382,755.512 671.629,758.841 668.168,757.35 667.036,755.824 666.354,754.21 666.188,752.71   666.475,751.174 667.077,750.29 667.341,749.902 668.614,745.991 667.711,741.524 666.505,737.761 661.58,730.705 658.491,728.978   656.362,726.736 654.478,726.545 655.581,727.602 656.705,730.221 659.324,731.151 663.97,737.865 665.006,740.076 665.561,742.639   667.183,745.219 665.486,751.516 665.222,751.381 665.131,749.561 665.236,748.918 665.544,747.023 664.375,741.119   663.208,739.179 662.495,738.508 662.261,739.102 662.07,739.586 663.002,740.449 664.226,743.114 663.911,745.64 662.45,744.46   661.685,743.114 661.369,739.752 660.56,737.833 660.025,734.903 659.42,734.327 658.923,735.777 659.229,737.734 660.045,739.702   659.76,740.612 657.919,739.825 656.539,739.732 654.385,740.799 651.857,737.776 649.575,737.863 647.594,738.642 648.326,739.122   650.609,738.716 651.303,739.127 653.757,742.16 658.721,742.264 660.084,743.456 659.897,745.612 660.93,746.464 661.578,747.611   661.725,750.156 660.429,749.167 658.28,749.607 656.868,747.793 655.193,746.524 653.962,746.366 651.177,747.123 650.044,748.21   651.118,748.505 654.615,748.207 655.168,748.77 656.311,749.093 657.389,749.89 659.357,752.335 660.368,752.93 661.231,754.893   663.058,757.508 663.816,756.818 662.479,753.329 664.313,754.065 664.706,755.203 665.75,758.227 666.877,759.02 669.97,759.029   669.863,759.611 666.98,760.369 662.074,760.512 653.991,763.43 650.982,764.274 645.218,765.896 642.241,767.3 638.577,767.72   636.302,769.014 632.184,770.052 624.71,772.748 623.444,773.958 621.46,774.446 617.616,774.479 613.527,774.012 605.796,772.419   601.329,770.533 600.745,770.446 598.506,770.116 597.072,769.361 589.977,769.921 588.964,772.212 582.866,771.433   582.916,770.853 585.473,770.557 586.085,770.029 584.014,768.397 582.603,767.708 580.52,766.746 578.989,766.63 578.931,767.682   580.017,769.041 580.476,770.198 581.262,770.489 581.418,771.102 580.163,771.795 578.783,771.667 575.481,769.895   572.442,769.354 571.11,768.647 570.641,767.385 569.64,767.536 565.513,765.118 564.132,764.993 560.281,761.685 559.345,760.97   554.529,759.075 552.631,759.757 549.926,757.991 546.066,756.394 544.111,755.075 539.56,753.002 535.559,750.721 534.063,750.509   532.896,749.479 532.476,749.56 531.148,749.816 530.196,748.4 528.543,748.674 527.39,747.801 522.465,745.857 521.159,745   517.822,744.724 510.159,742.451 506.675,742.226 501.84,742.296 498.771,741.687 496.862,741.947 494.424,741.533 494.173,741.575   490.017,742.275 488.409,742.976 487.84,742.411 487.347,741.105 487.823,738.333 487.157,738.302 486.32,741.26 486.719,742.9   481.263,743.348 477.533,742.769 476.234,742.002 473.509,740.395 458.966,728.071 458.517,726.763 459.958,726.86 460.597,726.63   460.782,725.981 459.671,724.693 457.349,724.019 458.191,726.119 457.658,726.391 456.339,724.605 454.953,723.613 453.2,721.617   452.216,720.108 452.585,719.281 453.372,719.452 453.809,718.773 452.898,717.936 452.252,717.644 451.424,719.886   450.649,719.818 446.778,715.818 445.336,713.892 440.98,709.742 438.788,708.009 437.284,707.4 435.543,705.145 431.094,701.282   424.44,695.52 421.445,693.155 415.608,689.354 416.874,688.729 418.264,689.191 421.886,688.495 422.993,686.807 423.529,685.786   423.973,683.377 425.128,680.884 424.938,680.121 425.531,678.115 427.627,673.328 426.317,673.729 424.288,675.802 424.098,677.29   422.899,677.171 421.663,681.192 419.581,683.221 413.195,686.294 413.853,687.523 413.167,687.816 405.932,682.726   405.184,681.612 404.353,681.557 402.456,680.322 399.676,677.73 398.42,677.571 397.328,677.914 396.301,677.517 395.456,676.413   395.203,676.082 388.645,674.276 382.98,670.951 379.65,667.335 376.462,665.327 375.108,664.817 374.511,663.74 375.174,660.723   373.91,655.486 372.65,654.493 372.758,653.694 373.319,653.203 373.351,652.624 374.135,651.843 377.327,650.864 379.104,651.007   381.63,653.048 382.717,650.92 381.215,650.061 380.164,649.931 379.618,649.336 378.417,649.392 376.735,649.838 374.722,649.044   372.785,649.29 370.249,650.973 368.831,652.549 368.059,653.812 367.127,654.57 366.916,654.455 366.604,654.427 366.296,654.424   365.55,654.4 365.195,654.676 365.091,654.787 364.964,655.406 364.673,655.351 364.527,655.324 364.089,655.411 364.087,656.37   365.095,658.231 367.101,660.647 369.328,661.936 372.921,663.417 374.218,664.721 374.167,665.146 373.882,665.055   366.097,662.558 365.239,662.719 358.636,665.717 357.858,667.338 359.402,670.598 359.079,671.319 357.638,671.77 355.181,671.93   353.434,671.863 349.578,671.716 340.419,674.388 337.493,674.513 336.052,675.753 330.002,677.663 327.195,676.307   326.916,675.973 324.257,672.769 320.846,667.617 317.165,667.539 314.896,666.798 314.172,667.578 313.29,669.901 312.356,670.659   305.594,672.804 304.207,673.875 301.954,674.029 300.009,673.774 298.029,674.415 296.187,673.779 295.234,674.384   290.778,675.203 290.445,675.263 287.036,675.27 284.153,674.206 282.408,674.294 280.719,674.796 279.674,675.837 279.031,675.71   277.497,675.411 271.514,674.007 269.997,672.753 267.187,672.999 265.928,672.13 265.51,671.35 262.701,669.758 261.745,669.95   257.645,673.538 256.573,673.641 256.371,675.141 256.573,676.214 256.016,677.032 254.301,676.229 254.025,675.378 254.575,674.51   254.011,674.17 250.863,675.682 249.779,676.787 246.912,675.895 243.54,679.806 240.733,679.695 237.216,678.956 235.781,677.962   234.466,677.698 233.971,677.6 231.998,678.262 228.365,681.382 227.069,681.898 225.825,682.394 225.346,680.522 224.464,680.497   222.817,678.064 222.515,677.058 222.779,676.388 223.811,675.654 224.707,673.995 225.673,673.167 225.817,671.306 226.439,669.53   225.617,668.865 224.865,667.618 224.251,666.601 223.174,665.607 222.973,666.005 222.49,665.184 222.197,663.177 223.003,660.533   224.279,660.394 226.196,656.112 226.361,654.038 227.111,652.77 227.096,651.248 232.228,650.115 232.603,649.481 232.082,648.035   231.154,648.311 229.592,648.773 227.249,648.02 226.319,648.054 225.523,647.227 224.454,647.019 222.882,645.153 222.474,643.795   221.195,643.935 220.475,642.571 221.351,641.81 220.905,641.245 221.04,640.752 225.989,636.549 226.601,632.697 226.094,629.108   226.547,628.355 226.017,626.29 226.588,624.628 226.306,623.152 226.846,620.289 227.2,619.684 228.364,617.691 232.494,619.189   233.239,620.645 233.036,620.676 234.413,622.19 235.807,622.809 237.446,625.697 238.719,626.545 239.239,627.563 240.28,627.925   241.841,629.986 243.418,636.549 241.848,637.555 242.414,640.045 242.22,641.23 242.455,642.141 244.394,640.438 245.179,640.113   250.354,642.14 254.355,642.504 256.77,641.944 256.895,641.537 257.09,640.9 256.981,638.658 257.236,637.518 258.833,636.549   260.599,634.424 262.469,633.772 263.184,634.396 264.566,634.291 268.159,631.49 270.321,629.806 272.878,629.577 275.873,632.32   278.428,633.141 278.829,632.348 280.646,632.023 283.45,629.25 284.014,627.44 286.533,626.595 287.819,625.462 288.604,625.87   290.998,625.516 291.293,625.473 292.067,626.876 292.991,625.745 294.651,625.397 296.903,621.614 298.27,622.826 299.524,622.173   301.889,622.037 300.55,620.298 300.245,620.341 298.805,618.981 296.458,618.175 294.527,615.946 295.397,615.504 294.799,614.599   293.524,614.854 292.536,615.37 291.946,615.331 292.171,614.631 292.905,614.321 292.919,613.095 293.536,612.436 293.458,611.445   296.957,609.417 297.242,609.951 296.046,611.381 297.224,611.627 298.072,610.667 299.438,610.049 300.256,611.761   300.113,612.932 298.642,611.733 298.382,612.451 297.042,612.915 295.761,613.358 296.025,614.104 297.676,614.753   300.544,614.125 301.083,614.989 303.255,614.567 303.064,613.235 304.539,613.388 305.316,613.013 305.213,612.297 302.886,611.64   302.435,611.026 302.79,610.242 305.051,610.436 305.792,609.807 305.748,609.5 302.044,608.31 300.908,607.271 300.478,606.567   299.002,604.147 296.85,602.578 294.868,601.821 293.217,602.272 293.257,601.116 294.369,600.535 294.905,599.567 296.662,600.198   298.261,601.901 299.659,602.222 300.823,601.634 302.028,599.889 302.546,600.233 302.039,601.771 302.929,602.897 304.522,602.04   304.833,602.996 304.895,603.188 306.926,602.843 307.258,601.173 308.459,600.843 310.106,602.541 311.089,602.505   312.028,604.725 311.884,606.993 312.386,607.602 313.076,606.614 315.266,607.032 316.539,606.851 316.496,606.542   313.637,605.068 313.869,603.781 314.925,603.524 314.998,602.572 314.088,602.023 314.03,601.613 315.289,601.329 316.097,601.161   316.174,600.951 316.36,600.444 313.432,598.509 313.862,596.773 315.647,596.152 317.723,597.949 317.897,599.178 317.329,600.306   317.685,600.621 319.965,600.193 321.284,599.22 320.688,598.311 320.914,597.704 322.743,597.394 323.998,596.693 325.112,596.849   325.076,596.592 327.095,596.152 327.125,595.625 325.273,594.901 323.877,594.357 320.625,596.02 319.554,595.805 318.919,596.471   318.373,595.921 319.869,593.982 318.857,592.348 319.193,591.778 320.324,591.304 321.388,591.833 322.651,590.451   322.687,590.708 324.117,590.873 325.359,589.704 323.851,588.609 319.216,590.101 318.299,589.634 315.847,588.383   313.469,589.246 312.87,588.705 314.096,587.795 314.505,585.541 313.892,582.7 311.759,582.01 309.21,582.428 309.109,583.542   307.386,583.894 306.583,583.746 306.102,584.391 304.99,583.557 305.559,582.795 307.107,582.312 305.973,581.323 306.418,580.789   306.569,580.775 307.5,580.685 308.207,579.067 308.146,576.46 308.607,576.075 313.014,569.958 314.697,568.935 322.302,558.391   323.072,558.284 324.895,559.701 326.927,559.26 327.632,559.69 327.9,559.855 329.411,559.436 330.833,559.865 332.109,559.635   332.566,558.734 331.835,558.051 328.55,558.143 327.895,556.091 330.174,554.048 332.591,552.98 333.822,551.292 334.347,551.183   335.299,550.984 336.163,551.544 336.95,551.173 336.948,549.657 338.658,549.893 339.299,551.11 338.786,552.697 339.859,554.014   341.855,554.054 342.711,553.047 343.828,552.789 343.856,552.994 345.982,552.077 346.337,554.276 348.625,555.689   352.237,555.302 353.291,553.435 354.324,551.414 356.067,549.976 358.508,549.438 359.378,549.033 359.886,548.783   359.852,548.526 357.102,547.956 355.352,548.191 353.228,549.523 352.55,551.079 350.825,552.253 348.632,551.924 348.145,551.05   351.589,549.797 352.461,548.896 352.094,547.744 349.995,546.199 346.33,546.105 345.786,546.093 342.762,546.976 341.037,546.637   339.809,546.857 335.906,545.567 334.434,544.044 329.272,545.022 326.666,547.373 324.99,547.765 324.703,548.327 321.243,551.263   320.02,553.379 319.893,553.424 317.032,554.48 315.168,558.301 313.65,559.406 312.331,561.163 309.078,562.936 305.588,566.312   303.75,566.628 302.544,567.691 301.636,567.195 297.587,567.63 295.97,567.806 292.507,567.734 290.839,565.989 289.349,565.108   287.913,564.952 286.335,565.969 285.744,564.8 287.257,564.054 288.208,561.978 289.27,561.718 289.894,560.266 291.22,560.02   293.396,555.568 294.057,555.786 294.478,556.687 295.259,555.403 296.941,553.641 297.025,552.059 298.545,552.415   300.849,551.664 301.76,552.526 302.531,552.417 303.093,550.869 303.805,550.715 304.981,551.958 306.54,551.584 307.827,550.987   307.567,549.586 307.9,548.76 309.691,548.25 309.382,547.82 308.772,546.97 305.99,548.414 304.128,546.065 303.004,546.278   303.034,546.483 301.557,546.067 300.171,547.366 299.193,547.14 297.857,547.333 297.088,548.177 297.594,550.564 296.926,550.66   293.996,548.207 293.386,547.272 291.965,545.099 293.509,540.95 294.514,540.281 293.968,537.272 294.309,533.506 295.389,532.984   295.261,536.771 296.891,535.331 296.967,530.82 298.082,529.455 297.681,528.152 298.235,525.821 300.56,520.464 301.025,520.398   301.787,521.283 302.362,521.253 303.238,520.029 305.295,519.316 307.625,516.473 309.308,517.176 312.978,515.856   315.023,514.746 316.743,515.341 318.168,514.983 318.685,515.277 319.417,514.86 319.218,513.842 318.568,513.724 317.151,512.302   316.818,512.557 313.826,512.665 313.575,512.02 315.895,511.275 317.233,509.937 318.574,506.4 319.997,504.879 319.234,504.005   316.719,504.515 314.596,504.447 313.538,505.538 311.053,506.986 309.678,507.338 309.486,507.836 310.611,509.404   309.199,509.865 307.868,509.061 307.049,509.961 306.385,511.574 305.706,511.985 304.101,515.091 303.119,515.598   302.933,514.682 304.215,512.734 304.834,511.794 303.887,510.726 302.521,511.863 301.177,512.054 298.521,516.623 295.613,516.57   293.315,518.157 292.365,514.58 293.885,512.004 295.138,508.683 295.103,507.012 294.482,507.103 292.95,508.893 293.054,510.162   293.082,510.497 291.168,512.554 290.482,514.694 290.15,516.731 290.778,518.839 289.276,519.737 287.669,521.699 288.17,523.302   287.746,529.33 286.938,529.92 285.663,529.844 285.169,529.707 285.332,528.321 284.28,528.685 283.124,529.772 280.263,532.467   279.496,532.267 280.459,530.606 281.831,529.568 281.959,528.659 279.558,530.215 278.549,530.154 277.55,529.464 277.103,528.588   276.793,528.633 275.821,527.416 275.831,524.325 274.709,524.228 274.883,522.578 274.507,522.53 272.09,526.082 271.693,526.245   271.672,525.874 271.6,524.583 275.129,517.202 275.701,515.389 273.315,515.322 272.978,513.435 273.277,512.972 274.207,512.834   274.357,512.079 273.65,511.241 271.691,512.262 271.612,511.385 273.1,509.699 271.697,508.806 271.513,507.942 272.506,506.613   272.656,506.412 272.988,505.106 272.307,505.155 270.071,507.841 269.008,507.109 267.3,508.044 265.911,510.03 265.239,510.131   264.081,509.466 263.11,510.03 260.976,506.105 261.612,504.386 260.313,503.847 260.988,502.385 260.907,499.097 262.591,497.64   262.197,496.941 262.155,496.866 259.804,497.428 259.075,495.44 257.728,493.233 257.925,492.102 251.647,487.858 251.529,485.728   252.577,485.99 253.509,487.893 254.848,489.001 258.851,491.231 258.812,490.975 259.635,490.798 263.689,489.932 263.811,489.337   262.764,488.394 260.409,489.636 260.167,489.096 262.312,484.062 262.864,483.506 265.921,483.368 264.768,482.072   262.191,481.198 263.037,479.448 264.113,477.454 255.327,484.896 254.709,484.674 254.842,484.136 255.166,482.823   254.417,481.417 256.982,480.14 258.693,478.837 260.375,474.919 261.77,474.66 262.333,471.746 262.451,469.056 263.309,468.405   265.364,467.576 265.591,466.286 265.111,464.89 262.699,464.095 260.84,462.746 260.131,462.642 259.393,463.381 258.352,463.535   257.72,462.897 256.002,463.154 254.31,464.611 252.305,463.707 252.265,463.45 254.128,462.751 253.573,460.896 255.012,460.208   255.162,458.773 253.367,459.288 251.743,459.756 252.277,458.733 254.615,456.967 255.81,453.33 255.562,452.423 257.49,451.089   257.053,450.682 255.681,450.782 254.166,452.371 253.912,454.504 252.888,455.811 250.819,455.545 250.76,454.852 250.922,454.218   251.632,453.949 252.205,453.639 252.234,452.992 251.902,452.338 251.651,452.408 251.283,452.977 250.922,453.8 250.517,453.927   249.534,453.915 248.862,453.823 248.482,454.586 248.466,455.845 247.704,456.431 245.125,455.3 244.263,454.225 242.936,454.95   237.855,459.602 237.904,459.909 240.605,460.807 240.646,461.064 239.237,461.593 235.113,460.805 232.322,462.701   231.633,462.705 231.257,462.706 227.849,460.399 228.556,459.818 232.278,461.083 233.146,460.843 233.691,459.241   232.106,458.331 231.25,458.984 229.949,458.188 230.636,457.139 230.386,455.238 229.062,454.969 228.02,454.133 226.886,454.042   226.235,453.987 222.07,455.312 220.616,454.909 219.199,455.391 219.298,456.004 224.195,459.232 226.241,461.014 226.09,461.404   223.115,459.818 220.048,457.671 217.202,456.908 216.018,456.766 214.154,456.544 212.465,455.023 204.834,456.695   202.649,456.725 200.524,455.17 196.297,454.936 196.154,455.234 193.732,456.093 191.012,455.164 188.003,455.382 183.687,454.501   180.281,453.002 178.035,452.683 171.061,449.721 168.836,449.565 163.64,449.202 160.343,449.955 158.593,451.294 158.668,453.908   158.151,455.255 156.212,456.416 153.484,457.285 152.248,457.192 149.898,455.469 147.146,454.719 145.215,454.842   140.055,455.174 139.984,454.765 141.567,454.026 146.309,453.599 145.03,452.709 142.929,452.324 141.362,452.852 137.523,455.075   134.09,459.283 133.812,460.433 134.014,460.795 135.213,462.93 134.548,464.619 132.814,466.91 133.125,466.858 133.672,468.447   130.469,469.361 127.363,468.102 125.272,468.978 122.689,470.06 120.059,469.985 117.224,472.051 115.235,470.187 114.074,469.966   113.147,468.969 111.534,468.617 110.973,467.873 109.58,467.852 108.304,466.706 105.815,466.244 105.743,464.364 104.165,460.377   104.058,460.226 102.781,458.414 99.779,451.566 100.111,449.562 99.015,449.437 98.667,450.76 97.732,450.925 97.082,450.302   95.93,446.346 93.802,442.35 92.799,436.319 93.776,435.775 95.582,436.828 97.293,435.896 98.537,435.941 99.915,434.07   100.905,433.896 101.882,431.885 103.803,430.92 105.024,428.761 105.997,428.487 107.212,428.961 110.203,426.761 111.474,426.647   112.855,427.146 114.332,425.787 115.379,426.815 115.836,427.265 114.759,427.556 114.731,428.296 117.139,430.619   118.133,430.764 116.262,428.139 116.974,427.911 119.973,431.134 125.145,432.407 127.01,433.826 129.756,434.464 130.547,434.382   132.295,434.245 133.499,434.672 135.568,433.008 137.721,429.072 138.896,429.032 140.415,429.724 142.79,429.169 144.663,427.594   146.672,422.792 147.974,421.314 149.334,421.088 151.685,421.723 151.987,421.805 154.132,421.767 156.71,420.816 157.635,420.874   157.88,421.359 157.107,422.484 160.229,422.812 158.518,418.206 160.054,418.374 161.544,417.342 161.709,416.737 163.901,417.902   164.506,420.483 163.088,422.868 163.089,423.757 163.09,424.128 163.849,424.793 164.999,424.605 165.687,423.916 164.84,422.739   165.641,421.768 166.74,421.589 167.638,422.125 168.293,424.068 166.847,425.353 166.866,426.716 168.435,427.722 170.673,426.359   171.431,426.394 172.625,427.408 173.949,427.273 174.367,427.231 175.343,426.022 176.358,420.606 175.19,418.485 175.218,416.118   173.884,412.394 174.295,410.384 175.129,409.222 176.385,407.474 178.196,405.764 180.966,406.526 182.284,407.226   183.097,407.656 188.304,408.505 188.433,408.958 188.187,409.222 185.377,412.228 184.157,415.206 184.789,417.361   183.087,417.478 182.49,419.673 180.856,421.773 182.343,423.896 183.111,423.354 184.266,425.057 184.684,425.674 184.898,427.583   186.083,427.603 187.019,429.344 187.612,429.039 187.802,426.332 186.662,418.9 186.881,418.288 187.866,418.709 188.183,417.713   190.406,418.147 192.234,419.43 194.057,419.404 195.229,420.951 195.065,421.914 194.444,425.589 194.824,426.264 195.462,425.899   196.349,422.19 195.959,419.208 195.039,418.199 191.559,417.647 191.021,416.999 192.146,411.832 193.936,409.659 194.462,409.222   196.101,407.86 196.82,407.262 199.958,407.345 202.066,408.693 202.41,409.222 202.933,410.026 203.277,412.755 204.972,412.593   205.793,411.048 207.087,410.741 208.931,409.222 209.836,408.476 211.157,408.323 212.242,409.222 212.306,409.222 214.25,407.161   217.824,405.245 217.963,405.172 218.882,403.875 210.534,403.226 210.259,402.534 210.816,401.66 214.368,400.323 214.86,401.348   215.947,401.076 216.997,397.608 220.758,395.876 221.907,393.654 222.552,393.186 223.837,392.256 224.876,392.674 225.095,393.69   223.909,395.026 224.059,395.947 226.051,394.594 227.028,395.966 228.412,396.856 226.955,397.184 226.404,399.104   228.217,398.984 228.258,399.239 226.984,400.692 226.541,402.281 224.856,402.853 223.437,404.067 222.411,404.383 222.126,404.95   222.989,405.29 224.304,405.139 224.364,405.132 225.185,404.22 226.496,404.334 227.699,402.786 228.648,403.323 228.104,405.295   227.548,405.852 229.148,406.761 229.15,408.439 229.388,409.222 229.607,409.943 231.697,411.565 233.315,411.267 236.062,413.315   238.224,416.763 238.773,416.837 238.1,414.631 237.756,414.126 234.867,409.877 234.615,409.222 234.314,408.441 235.385,406.391   235.086,404.863 236.572,403.38 237.091,402.253 239.1,403.365 239.78,403.278 239.278,400.769 242.59,398.226 245.189,398.991   246.573,398.888 250.657,399.853 253.847,398.907 256.205,397.458 259.602,397.416 260.158,396.561 260.77,396.681 263.157,395.752   263.851,396.751 265.724,397.369 266.702,399.164 269.019,398.826 274.165,400.436 274.35,402.349 274.736,402.38 277.565,402.616   278.27,403.353 278.733,402.867 280.409,402.572 281.78,404.156 282.577,404.095 283.804,401.195 285.69,402.286 286.232,402.314   287.063,401.409 292.138,401.891 295.793,403.677 299.389,403.273 301.257,404.634 302.823,404.343 305.912,403.772   313.864,403.398 314.699,404.695 315.444,403.911 316.603,403.02 316.724,401.641 317.395,400.345 316.523,396.226 314.293,395.35   313.269,394.948 312.741,393.189 313.759,391.321 317.115,388.871 318.074,387.325 317.661,384.138 319.232,383.083   321.086,379.533 322.157,375.776 322.997,374.876 324.305,370.511 324.041,370.547 323.544,368.993 322.945,364.888   321.576,362.928 321.296,363.228 319.039,362.595 317.241,362.779 314.562,363.057 313.797,363.733 313.501,366.128 312.389,367.38   312.851,369.777 312.488,371.345 311.61,370.891 309.743,373.61 307.012,375.603 303.138,379.66 296.481,384.205 294.407,384.76   288.696,385.15 287.536,385.683 286.342,385.275 284.787,385.341 283.878,384.686 283.272,384.249 282.953,382.774 279.918,382.424   278.176,382.674 277.083,381.888 274.662,382.291 273.601,381.709 271.755,382.344 270.415,381.699 268.946,380.237   266.026,378.827 265.157,378.796 263.536,377.408 259.628,375.57 258.781,373.964 257.241,371.047 255.715,371.322 255.388,373.362   253.444,373.388 251.785,373.842 251.151,375.299 250.281,374.588 249.464,374.553 248.318,373.464 244.964,373.125   242.041,373.456 240.413,372.073 240.961,371.101 240.475,369.758 241.691,369.576 242.665,370.23 244.117,371.206 245.675,371.132   246.785,370.285 248.473,367.623 250.442,368.431 251.536,367.474 250.597,366.678 245.237,365.325 244.203,365.636   242.299,367.283 241.591,366.917 242.606,365.14 244.905,362.909 246.138,358.06 247.821,356.708 248.53,355.032 249.513,354.728   250.398,355.174 251.908,354.541 253.094,354.043 254.674,352.709 254.692,350.767 254.236,349.943 255.919,348.909   257.311,346.713 258.217,346.949 258.342,348.083 259.343,348.266 260.562,346.658 261.195,344.469 260.688,342.971   261.106,342.176 262.751,341.571 264.832,341.321 269.037,339.35 270.034,338.419 272.094,338.363 272.741,338.345 278.135,335.948   281.145,334.327 284.456,330.702 286.632,329.271 291.315,325.702 291.92,324.307 293.101,324.193 294.644,322.51 294.675,322.717   297.313,322.505 298.539,321.602 299.569,318.683 299.302,318.719 298.949,317.826 299.835,317.913 302.023,321.958   303.249,321.298 301.216,317.668 303.496,316.515 304.829,314.132 307.946,314.541 307.984,314.798 317.105,312.661   318.151,313.095 318.601,312.82 321.806,310.871 324.716,307.652 326.783,306.183 326.892,306.105 326.859,306.069 325.662,305.17   324.283,306.193 322.257,305.786 317.68,309.18 316.059,309.662 314.53,309.294 312.79,307.914 312.053,307.328 309.253,306.507   307.954,306.516 305.651,306.532 303.152,307.713 300.889,307.921 299.604,309.338 299.11,308.797 303.192,304.357 302.905,303.559   300.746,301.918 297.622,296.119 297.491,293.099 296.845,292.967 295.273,294.717 292.665,294.136 293.418,296.913   292.843,298.878 292.899,301.752 290.188,301.554 290.036,299.848 290.434,297.801 289.004,296.691 287.479,293.186   286.441,289.297 285.172,288.533 284.24,289.24 284.777,291.363 284.944,292.022 284.671,297.352 283.697,298.484 283.157,300.656   280.738,303.408 278.335,307.312 278.549,307.281 278.398,308.771 278.198,308.537 275.771,311.554 274.709,311.757   274.133,311.211 273.058,311.679 271.855,310.16 271.493,309.702 269.881,309.881 269.338,308.857 268.029,309.57 268.164,307.296   265.165,305.266 264.121,304.891 264.071,303.537 258.701,302.111 257.566,301.174 257.364,299.212 257.3,298.12 260.115,294.462   262.471,293.073 267.931,292.237 270.172,291.497 273.537,291.278 275.974,288.626 276.251,287.591 278.226,286.892   279.415,285.362 279.742,284.457 280.835,281.44 280.785,279.353 281.882,277.573 284.4,275.386 285.728,273.019 284.48,273.069   282.256,275.738 280.645,276.333 279.318,278.489 277.753,281.038 275.829,285.241 274.062,287.273 269.185,289.75 263.564,289.929   262.342,288.794 261.801,287.457 265.836,284.885 266.656,283.456 267.681,282.995 266.705,279.937 265.977,280.199   264.816,282.934 261.696,284.378 260.209,287.11 259.466,287.27 258.725,288.477 257.464,288.135 256.581,285.013 253.852,282.458   253.801,283.425 254.955,285.144 254.944,287.138 256.241,289.414 255.015,290.326 253.868,290.702 251.628,292.811   249.831,293.913 247.997,293.762 247.301,293.182 246.843,290.68 247.424,288.498 246.939,282.721 246.828,281.401 245.947,277.647   244.168,274.134 244.142,270.46 244.135,269.522 243.58,268.134 241.545,266.126 241.166,267.179 242.478,271.182 241.753,274.173   243.233,278.886 241.526,285.64 239.415,287.929 239.285,288.069 237.759,288.137 236.782,286.184 236.314,283.315 236.58,276.194   235.351,273.386 235.108,268.544 234.537,268.419 233.802,270.993 234.523,274.474 235.383,278.627 233.407,284.691   233.672,288.324 233.103,289.878 232.16,290.491 229.406,290.428 228.287,288.969 227.401,284.59 225.901,282.821 225.759,282.478   225.35,281.487 225.354,278.18 224.19,275.469 226.475,270.982 227.945,268.874 228.493,266.851 228.312,265.984 227.355,265.97   224.603,269.321 223.052,268.608 221.022,266.341 219.865,266.409 221.879,279.122 221.886,282.479 223.301,287.041   223.118,290.584 223.159,290.714 224.288,294.344 224.268,295.619 220.873,293.599 219.319,294.579 218.421,293.708   220.004,291.998 216.39,287.77 214.024,288.076 212.473,289.308 210.563,288.076 211.146,287.62 212.997,287.435 211.976,286.34   209.603,286.281 209.446,285.676 210.683,284.857 211.283,283.19 212.174,282.268 212.723,280.296 217.919,274.838 217.688,272.458   215.963,271.04 213.402,270.219 212.007,267.495 211.48,268.622 211.695,268.589 212.26,273.594 211.223,276.272 209.752,277.02   206.929,279.866 205.37,280.733 204.778,279.512 204.433,275.837 203.536,274.767 202.62,270.339 202.405,270.372 201.641,271.067   200.702,274.625 201.138,276.867 200.057,278.608 200.077,280.023 199.739,280.563 197.783,283.685 195.489,286.035   190.926,287.004 190.075,285.246 188.685,284.518 185.882,284.851 183.464,284.545 182.42,279.457 183.639,277.27 183.194,276.288   181.618,278.006 180.079,279.02 177.416,284.842 177.624,288.3 179.796,291.319 178.66,294.913 174.969,298.649 168.257,298.875   164.721,297.811 162.655,297.617 162.146,297.381 160.801,296.757 159.81,295.498 159.449,293.453 157.216,291.394 156.762,291.625   158.024,293.788 155.208,293.716 156.351,294.582 157.679,294.946 158.188,295.654 157.426,296.932 152.77,297.633 150.615,300.031   150.579,299.827 144.774,301.455 141.94,302.498 140.309,301.976 137.764,303.394 135.217,303.531 134.447,303.573 133.379,302.224   132.093,306.645 129.604,308.056 128.882,308.911 128.037,312.418 126.323,314.756 126.268,314.449 118.367,315.613   114.804,316.213 112.734,317.045 112.099,317.302 109.784,317.535 106.981,316.01 103.93,315.53 102.104,315.736 101.27,315.087   101.234,309.882 99.188,306.861 99.233,306.223 101.47,308.788 102.386,308.106 102.24,305.247 102.2,304.452 103.309,304.211   103.762,303.398 100.24,302.786 98.823,301.872 98.303,301.537 96.656,301.556 95.095,302.612 97.08,304.695 96.623,305.194   91.326,301.575 82.295,297.083 81.972,296.921 79.96,295.321 74.842,294.809 73.208,294.865 71.834,296.316 69.746,296.628   67.933,296.367 65.323,296.826 63.04,296.701 56.442,298.184 52.622,298.654 49.788,298.526 46.241,297.237 45.219,296.864   44.805,295.884 45.393,294.473 45.517,294.174 48.746,291.805 50.798,291.016 52.015,289.06 51.803,287.41 53.01,286.247   55.988,285.666 60.123,283.933 61.48,282.047 61.993,281.336 61.254,278.672 61.909,276.924 61.462,275.825 60.746,274.071   63.661,269.711 65.675,269.251 66.159,264.898 66.947,264.392 76.866,268.462 79.005,270.094 80.381,270.304 81.062,270.407   82.082,270.562 83.644,271.506 85.574,274.387 85.802,275.875 87.413,276.746 89.998,278.145 94.529,281.436 98.823,282.24   102.477,282.925 103.595,283.895 103.481,284.757 104.569,287.046 106.655,289.062 107.861,290.227 111.553,292.025   113.117,291.552 116.916,288.862 118.358,288.621 118.858,287.972 115.185,287.837 113.582,288.106 111.868,287.183   110.027,287.651 108.375,285.877 107.656,283.787 103.643,280.306 102.667,278.629 101.304,277.543 99.677,275.346 98.823,274.848   96.453,273.471 96.397,273.377 92.461,266.674 90.083,263.762 89.807,262.019 90.373,261.5 95.123,262.904 98.823,263.407   100.633,263.653 103.572,263.682 104.885,264.198 105.22,264.55 107.432,266.874 115.629,270.237 117.466,272.403 119.502,273.279   117.363,269.737 113.233,266.848 112.293,267.743 111.602,265.805 106.431,261 105.846,260.457 102.923,259.633 102.594,259.057   101.094,258.151 98.823,257.513 97.819,257.232 94.594,254.83 90.92,250.663 90.097,245.747 88.285,243.527 86.493,239.673   86.797,237.433 87.094,235.251 85.426,232.058 85.652,230.914 86.736,229.306 86.864,228.23 88.111,227.176 89.828,226.831   93.777,228.848 96.267,229.058 98.823,231.031 99.35,231.439 101.699,231.879 103.262,233.092 105.116,235.254 106.849,236.491   108.2,236.581 111.168,237.296 115.181,240.943 116.702,241.953 118.077,241.883 123.208,244.717 129.345,247.021 136.04,250.292   137.906,251.722 138.162,254.048 137.676,255.802 137.507,256.412 139.916,254.867 142.788,260.342 143.548,263.637   143.131,264.388 141.025,265.889 141.436,269.082 140.805,269.867 141.178,271.017 141.906,271.687 143.37,271.237 144.768,269.801   146.159,266.789 148.143,263.681 149.058,264.163 149.921,267.127 150.866,267.436 150.417,263.419 151.221,262.973   156.285,266.891 157.915,267.364 158.471,267.134 159.561,266.681 159.658,265.982 157.546,263.114 156.546,260.908 158.22,260.061   160.657,259.777 162.331,258.301 165.683,257.558 167.28,257.616 167.189,257.319 168.659,255.614 171.161,255.376 171.655,254.091   170.237,253.894 167.591,254.575 166.075,255.394 163.599,254.84 161.807,256.282 158.508,257.019 156.335,255.685 154.353,255.739   152.961,255.385 151.188,253.514 150.611,253.478 149.563,253.408 148.11,251.486 146.356,250.666 144.201,248.543 143.921,246.379   145.765,244.923 148.216,244.371 150.539,243.103 153.695,243.385 155.576,244.292 161.55,242.972 161.659,242.851 161.828,242.666   163.578,240.967 169.045,240.523 175.43,241.516 176.347,239.913 175.871,239.923 173.822,238.038 173.696,237.006 174.569,235.976   177.739,234.429 179.458,234.108 179.887,233.275 178.588,232.146 177.76,231.378 175.949,231.819 169.772,235.521 167.117,236.519   164.563,236.573 161.367,236.64 158.058,237.693 151.471,237.485 147.721,237.422 143.908,238.334 142.982,238.432 136.086,236.238   130.511,233.099 130.558,233.354 126.138,233.499 124.556,232.76 120.561,227.537 118.978,225.471 115.246,221.879 114.61,220.562   113.927,217.55 113.656,216.352 111.398,212.042 110.775,208.724 111.003,206.369 111.93,204.163 113.307,202.565 115.579,201.558   119.526,200.54 123.911,201.872 125.306,203.064 133.784,206.324 134.145,206.464 135.109,208.673 139.615,212.258 142.326,210.611   144.521,210.099 146.708,210.168 148.395,209.005 151.871,212.813 155.066,214.775 157.598,214.855 161.067,216.239 162.412,215.66   163.078,215.708 164.219,215.793 166.433,217.285 168.834,217.326 171.029,218.717 172.618,218.573 174.377,219.4 178.042,219.354   175.471,217.391 172.825,217.542 172.862,217.746 170.107,216.024 167.713,215.401 165.917,214.312 162.019,212.829   158.323,212.732 153.675,211.685 153.881,209.125 152.458,207.408 150.981,206.644 148.798,205.994 146.016,206.967   142.252,205.274 139.205,203.908 138.13,202.608 137.48,199.979 136.014,198.69 133.305,197.339 128.042,192.776 126.922,190.96   124.839,190.3 122.145,187.266 121.488,186.031 120.419,184.023 118.535,182.647 117.125,180.511 117.196,178.499 115.89,175.134   119.088,168.819 120.63,167.146 121.648,166.875 126.552,168.445 127.231,169.071 127.644,169.477 131.323,169.617 134.426,170.59   138.258,172.996 141.094,174.777 149.704,176.137 152.861,179.002 153.737,177.337 154.527,177.054 155.337,177.189 155.212,178.05   155.951,182.14 154.963,182.875 156.627,183.716 157.847,184.89 158.594,185.613 159.801,185.475 161.264,186.139 161.893,185.872   161.236,185.669 158.25,182.776 156.966,177.826 153.82,175.011 149.687,171.723 148.328,171.045 147.528,171.277 147.326,172.94   146.652,172.942 146.187,170.701 143.619,169.3 143.504,169.238 141.695,166.422 140.093,165.049 135.985,163.814 132.034,157.98   132.315,156.46 133.378,155.815 135.039,155.654 136.501,155.945 140.587,155.501 140.845,155.135 141.973,153.543 143.587,153.129   148.178,154.818 149.603,154.906 152.303,157.057 156.146,160.867 158.345,161.52 159.999,163.205 161.056,163.145 160.889,161.908   157.43,159.742 153.974,157.581 152,154.159 149.19,152.343 147.381,151.998 145.208,152.133 143.561,151.45 142.191,151.667   140.772,150.999 138.903,151.562 138.076,150.747 137.657,149.395 137.951,148.241 139.928,147.031 140.735,145.903   141.234,145.244 143.002,144.12 144.063,142.216 147.24,141.713 149.367,141.586 149.425,140.052 150.074,137.74 150.549,137.653   152.152,137.36 158.978,139.495 160.268,139.134 168.544,141.526 169.752,142.599 171.134,142.438 172.817,144.28 174.562,148.373   175.969,148.366 179.678,149.266 184.513,152.73 185.693,155.911 187.23,157.937 186.108,165.306 185.541,166.232 181.703,167.399   181.338,167.876 181.432,168.41 181.492,168.745 182.143,171.61 188.194,165.354 192.577,160.22 193.19,159.549 194.45,159.358   195.699,161.691 198.127,163.056 199.011,165.243 199.307,165.977 199.149,174.456 198.666,178.469 197.057,180.499   195.801,181.005 194.304,182.703 193.35,185.265 189.348,190.551 190.781,190.752 192.538,188.961 193.271,189.322 194.708,186.317   196.192,185.199 198.597,181.631 200.634,179.484 201.965,176.815 202.443,172.438 203.374,171.981 204.149,173.23 204.215,174.586   205.781,177.5 205.595,179.441 205.5,180.431 203.898,184.137 203.68,185.799 204.306,189.117 204.935,190.178 205.488,190.147   205.419,186.482 204.995,184.34 208.229,180.022 209.086,178.161 209.319,175.92 209.153,174.586 209.025,173.549 210.284,174.357   210.997,175.249 211.272,177.517 211.916,178.997 211.065,179.911 209.905,184.916 207.453,190.85 205.24,193.912 202.149,197.535   199.432,200.725 198.909,202.612 199.467,202.874 201.081,200.581 201.494,199.416 203.763,198.65 205.385,195.413 206.232,194.812   207.484,194.625 208.025,193.546 209.665,192.355 211.48,185.624 213.505,183.064 213.54,183.269 215.179,182.71 215.769,183.3   216.459,183.99 215.516,187.332 215.231,193.885 212.761,202.022 212.033,206.329 212.939,206.353 213.524,205.531 214.55,201.387   216.452,200.106 217.446,198.068 218.225,194.75 218.058,193.248 217.793,190.877 219.31,186.295 218.63,180.622 220.81,170.011   222.636,170.53 224.607,172.815 224.771,171.895 226.13,171.641 227.413,172.607 229.047,170.322 229.532,170.88 229.308,174.219   230.627,177.751 231.286,178.338 232.402,179.33 234.378,178.945 234.57,178.908 235.459,179.879 237.052,186.103 238.204,187.665   239.531,187.577 239.779,188.066 238.679,190.534 238.865,198.745 237.872,200.829 237.548,204.601 235.824,206.637   235.708,208.963 233.264,213.362 232.594,218.707 230.629,221.935 231.17,222.311 232.286,222.215 232.869,221.709 235.212,217.062   235.314,212.64 237.176,210.654 237.537,210.269 238.157,205.93 239.625,205.715 240.587,202.428 240.29,199.271 242.273,197.095   243.139,195.237 242.642,192.896 243.722,190.641 243.289,189.027 243.711,187.863 244.513,187.643 246.23,189.155 246.406,189.309   247.212,192.183 246.504,194.332 246.92,195.844 249.505,197.676 249.728,197.329 249.011,195.334 248.739,195.373 248.869,194.462   250.24,195 252.1,196.831 252.522,197.714 251.494,200.642 252.283,203.779 251.981,207.334 253.675,205.834 253.944,204.747   253.477,203.242 253.303,200.12 254.021,198.706 254.286,199.91 255.304,204.553 253.945,208.522 254.105,210.545 250.992,216.027   248.607,222.193 245.771,224.544 245.012,225.541 238.915,231.421 240.135,231.451 244.072,227.729 248.103,224.888   250.373,220.417 251.879,220.462 253.734,218.884 254.29,217.86 254.272,215.346 256.646,211.808 257.478,208.7 257.571,205.487   259.127,203.745 261.336,203.897 262.48,203.875 261.125,202.673 260.138,200.349 259.067,199.925 258.609,197.79 257.492,195.01   256.813,189.113 256.133,186.29 254.332,182.089 250.969,178.27 249.577,177.63 248.757,175.701 248.837,173.802 250.049,173.681   250.233,172.547 250.042,168.856 251.842,166.501 255.104,165.196 257.796,163.136 258.357,161.332 257.024,161.148   251.561,164.444 248.501,165.614 246.845,165.432 244.464,164.253 242.102,162.18 239.056,161.414 238.06,158.462 237.536,158.148   236.206,157.35 233.439,156.351 230.62,156.291 229.178,154.402 227.444,154.445 226.702,153.835 224.572,152.085 221.094,152.804   218.319,149.382 213.832,149.468 213.033,148.746 211.562,146.077 209.998,146.153 205.464,143.049 204.721,141.689   203.379,140.376 202.383,139.403 201.599,138.638 199.282,133.102 200.361,129.895 201.172,129.038 203.49,127.746 209.636,127.672   209.42,127.073 209.06,125.97 209.688,125.353 210.836,125.131 212.426,123.53 222.26,122.188 223.784,123.173 225.198,124.174   227.848,127.146 231.378,127.316 233.38,127.13 235.035,125.896 237.537,127.004 237.248,128.986 239.477,130.502 240.62,132.28   242.125,133.532 242.917,132.526 242.462,130.807 239.957,128.65 239.794,127.675 240.853,125.897 243.892,127.193 244.688,125.873   251.342,124.453 255.491,122.555 257.788,122.042 259.305,121.704 259.608,121.136 259.346,120.229 256.436,120.268   254.182,120.432 254.036,120.507 250.639,122.245 246.117,121.891 239.457,120.588 241.411,117.056 244.274,116.593 246.059,115.08   248.133,112.581 248.167,112.787 250.322,112.01 248.172,110.425 249.044,107.836 247.376,108.02 246.134,106.927 246.171,109.292   244.378,112.12 240.291,115.432 238.559,117.253 237.243,117.496 235.846,117.198 234.016,116.806 230.412,116.908 228.818,115.512   227.219,115.429 225.801,114.744 225.496,112.95 228.221,108.986 230.121,104.421 229.751,103.305 230.136,102.567 232.128,101.597   234.381,101.167 236.496,99.92 236.481,98.819 228.775,99.563 227.815,101.59 224.473,106.275 221.938,108.692 220.252,109.704   218.239,110.913 215.65,111.346 214.227,110.979 213.882,110.293 214.729,106.651 214.026,105.862 214.566,105.047 216.704,103.5   218.299,102.346 219.032,100.664 219.231,98.85 218.899,98.898 217.025,101.537 209.975,105.723 209.474,109.053 207.944,111.013   205.769,111.545 202.244,113.751 201.633,114.473 200.28,114.832 198.885,114.305 195.933,114.591 191.958,112.929 189.209,111.344   183.434,108.02 179.489,104.995 177.751,102.265 177.836,100.832 178.455,99.53 178.829,99.61 180.464,99.958 183.096,101.661   184.644,101.741 187.808,103.89 189.454,103.831 191.038,101.93 194.779,99.636 194.901,97.829 195.142,94.275 193.803,93.236   193.06,93.23 190.634,93.219 188.53,90.015 183.732,84.17 183.964,83.558 187.378,82.254 192.765,85.964 194.077,88.236   195.229,88.955 195.407,88.352 195.204,87.92 193.583,84.474 193.632,83.783 194.403,82.986 197.427,82.691 199.876,83.01   202.207,82.663 204.02,80.977 205.18,81.751 207.316,81.907 209.576,84.096 208.966,85.499 210.445,88.116 211.47,88.123   211.814,86.496 212.138,85.084 209.253,82.568 207.243,80.185 205.458,80.081 204.099,78.497 202.521,77.626 202.205,76.15   203.143,75.644 205.762,75.552 206.884,75.512 209.257,75.058 212.501,76.997 213.658,77.089 215.393,78.884 216.03,80.261   223.5,81.64 225.061,85.771 227.352,86.857 230.568,86.708 233.385,82.816 233.749,82.313 235.376,81.503 235.823,80.441   235.236,76.643 235.812,75.668 238.243,75.216 241.181,76.425 244.557,80.247 245.353,82.285 248.398,84.163 249.44,87.006   250.884,87.485 252.436,86.217 252.942,83.785 252.494,80.483 252.432,80.027 249.883,77.028 250.106,75.634 250.809,75.063   251.767,75.348 254.308,77.614 255.254,77.481 257.002,78.757 256.749,79.631 257.913,81.515 258.402,83.44 258.09,85.686   260.811,90.131 261.442,92.502 261.551,92.912 263.645,93.565 266.869,95.581 269.605,96.356 270.09,97.6 270.032,99.337   272.264,99.816 273.944,100.739 272.038,102.941 272.044,104.407 273.21,105.663 274.265,105.885 277.387,104.877 276.688,106.861   274.541,107.943 273.779,108.835 273.208,110.906 273.471,112.18 275.809,114.059 275.315,116.958 273.899,119.042 273.481,121.354   274.45,122.109 276.612,121.863 278.336,120.998 281.094,118.469 282.067,118.545 282.458,122.058 281.578,124.326 282.497,124.777   283.569,123.006 285.597,121.208 286.506,118.044 287.999,116.06 288.561,116.403 288.166,118.187 288.186,122.585 289.336,123.792   290.555,123.729 291.686,122.949 292.13,122.977 295.39,123.181 298.883,120.982 300.471,121.397 300.643,123.941 301.85,126.976   303.911,127.904 304.189,129.335 302.215,132.218 297.871,134.689 296.277,136.737 297.168,137.035 303.376,133.163 304.291,133.25   305.167,134.181 305.625,135.324 308.1,136.04 309.458,138.636 309.888,138.744 314.403,139.708 319.125,141.179 321.944,140.862   322.116,141.625 320.083,143.043 319.956,144.422 320.616,145.435 322.345,146.098 324.159,147.691 324.268,148.411 320.2,155.331   322.771,155.571 323.924,156.153 323.904,158.616 322.446,162.609 323.061,165.271 323.617,165.618 324.059,168.178   325.548,169.619 328.887,167.177 329.828,167.108 332.772,169.969 333.14,172.434 329.533,177.458 330.445,177.616 331.081,177.727   334.249,175.377 335.165,171.019 333.29,165.189 333.498,163.96 334.574,163.296 336.291,163.543 338.678,162.659 341.32,162.739   342.318,163.814 343.934,166.671 344.966,168.497 345.548,170.936 345.143,171.981 344.235,171.888 342.026,170.55 340.428,170.703   341.969,174.326 341.619,175.365 343.618,177.568 346.383,179.671 348.81,179.099 349.567,178.164 352.952,177.301 355.218,176.347   356.94,176.286 358.14,176.867 358.458,178.291 358.238,178.319 363.073,181.685 364.029,183.291 364.147,184.897 363.713,185.197   363.589,185.282 355.386,185.585 353.433,186.723 350.87,187.103 348.605,188.387 345.741,188.232 341.804,190.256 335.837,191.711   335.057,192.263 335.504,192.684 336.136,192.981 336.655,195.74 339.926,194.896 340.799,194.302 342.304,193.279 345.562,192.336   348.484,192.903 353.522,190.794 355.567,190.69 357.885,191.705 358.44,192.471 357.533,193.893 355.314,195.484 350.746,196.59   351.391,198.106 356.098,197.059 356.127,197.263 359.668,195.976 362.852,195.68 364.94,196.672 366.908,198.779 367.323,203.642   367.979,205.13 367.616,208.051 365.873,209.841 365.529,209.889 362.828,210.276 361.814,212.177 364.385,211.858 365.385,213.039   368.005,214.697 366.685,217.113 366.173,221.308 361.715,228.097 359.046,230.32 357.022,231.625 350.106,233.506 349.063,234.321   348.672,236.085 351.301,236.805 352.635,236.477 354.373,234.736 356.4,238.085 361.203,240.402 361.859,241.521 360.383,243.357   358.782,244.32 357.753,244.452 355.009,248.779 353.146,250.012 351.779,252.386 347.831,252.896 345.568,251.726 343.388,252.27   340.135,251.125 339.299,249.927 337.476,251.788 337.303,251.682 337.053,251.53 335.013,247.77 332.827,245.633 330.953,243.803   330.372,241.368 329.052,240.286 328.456,237.381 327.375,236.059 325.158,235.038 323.594,233.315 322.802,233.012   322.191,234.654 318.117,234.779 317.691,235.622 321.229,235.986 322.921,238.064 324.739,238.765 327.101,240.91 327.426,240.869   328.124,243.34 329.116,245.563 329.249,247.587 328.022,250.106 326.941,250.25 326.312,251.957 328.161,253.281 328.654,253.633   329.603,256.702 329.427,257.77 329.936,258.74 329.628,259.933 331.392,262.116 332.317,262.047 339.128,264.236 341.705,263.427   343.137,263.712 346.619,262.42 349.898,263.041 353.594,264.655 355.625,266.171 355.948,267.75 356.167,268.821 354.813,272.03   350.852,276.57 349.78,277.127 348.215,279.215 347.671,281.536 348.053,281.904 348.503,282.369 350.614,281.415 352.771,279.252   355.252,275.112 359.229,272.979 362.219,272.387 363.949,272.583 365.481,273.331 366.327,284.413 365.111,289.013   362.833,292.651 361.433,294.407 359.767,296.499 357.491,298.569 356.836,300.118 351.687,305.39 348.818,306.705 348.222,307.883   348.602,308.25 351.405,307.623 353.765,305.8 356.102,305.34 357.969,304.261 363.691,299.915 365.343,299.233 367.501,300.213   368.354,303.189 369.37,304.995 370.997,307.663 373.086,309.75 373.839,310.857 375.593,310.531 375.859,312.066 374.772,315.235   376.554,317.885 377.01,320.807 376.288,323.459 377.35,329.599 376.337,335.013 375.806,337.858 376.278,341.548 377.875,342.914   378.025,345.196 379.215,346.769 378.944,347.954 379.902,349.653 381.802,353.028 381.932,355.573 385.535,363.009   385.703,368.116 385.989,372.358 "/>
    <!--<use xlink:href="#heart" class="outline " fill="red" transform="rotate(225,150,121) scale(0.1)" />-->
    <use xlink:href="#heart" class="outline " fill="rgba(255, 0, 0, 0.7)" transform="rotate(225, 135, 480)" x="135" y="480"/>
</svg>
